<svg width="151" height="48" viewBox="0 0 151 48" fill="none" xmlns="http://www.w3.org/2000/svg">
<path d="M110.459 12.4025H98.93C98.93 17.5999 95.4714 21.9888 90.7441 23.3747C89.7069 23.7216 88.5536 23.9521 87.4009 23.9521V0.853027H75.8718V47.0511H87.4009V35.5016C88.5536 35.5016 89.7069 35.7322 90.7441 36.079C95.4714 37.4648 98.93 41.8537 98.93 47.0511H110.459C110.459 40.1634 107.403 33.9617 102.575 29.7269C107.403 25.492 110.459 19.2902 110.459 12.4025Z" fill="#FF8A00"/>
<path d="M50.0434 12.6361H49.8128C48.8904 12.4052 47.9681 12.4052 47.0457 12.4052V0.855713H35.5166V47.0538H47.0457V23.9547C48.1987 23.9547 49.3517 24.1856 50.3892 24.5321C55.1162 25.9181 58.5748 30.3068 58.5748 35.5043V47.0538H70.1039V35.5043C70.1039 23.8391 61.3419 14.1376 50.0434 12.6361Z" fill="#FF8A00"/>
<path d="M136.978 23.956L129.372 35.501L125.569 29.7285H111.733V29.7863L123.148 47.0538H135.6L150.819 23.9534H136.984L136.978 23.956Z" fill="#FF8A00"/>
<path d="M0.930664 29.725C0.930664 39.2769 8.688 47.048 18.223 47.048L29.7551 47.0503V35.5001L18.223 35.4978C15.0455 35.4978 12.4604 32.9081 12.4604 29.725C12.4604 26.5418 15.0455 23.9521 18.223 23.9521L29.7551 23.9499V12.3997L18.223 12.402C8.688 12.402 0.930664 20.1731 0.930664 29.725Z" fill="#FF8A00"/>
</svg>
